<svg xmlns="http://www.w3.org/2000/svg" viewBox="0 0 64 64"><circle cx="32" cy="32" r="32" fill="#f7931a"/><path d="M44.6 28.7c.6-4.1-2.5-6.3-6.8-7.8l1.4-5.7-3.4-.8-1.4 5.5c-.9-.2-1.8-.4-2.7-.6l1.4-5.6-3.4-.8-1.4 5.7c-.7-.2-1.5-.3-2.2-.5l0-.2-4.7-1.1-.9 3.6s2.5.6 2.5.6c1.4.3 1.7 1.2 1.7 1.9l-1.7 6.7c.1 0 .2.1.3.1-.1 0-.2-.1-.3-.1l-2.4 9.5c-.2.5-.7 1.2-1.8.9 0 0-2.5-.6-2.5-.6l-1 4 4.4 1.1c.8.2 1.7.4 2.5.6l-1.4 5.8 3.4.8 1.4-5.7c.9.2 1.8.4 2.7.6l-1.4 5.6 3.4.8 1.4-5.8c5.8 1.1 10.2.7 12-4.6 1.5-4.2-.1-6.6-3.2-8.2 2.3-.5 4-2.1 4.5-5.3zm-8.1 11.5c-1.1 4.2-8.1 1.9-10.4 1.3l1.9-7.5c2.3.6 9.7 1.8 8.5 6.2zm1.1-11.6c-1 3.9-7.1 1.9-9.1 1.4l1.7-6.8c2 .5 8.5 1.5 7.4 5.4z" fill="#fff"/></svg>
